<svg width="123" height="33" viewBox="0 0 123 33" fill="none" xmlns="http://www.w3.org/2000/svg">
<path d="M20.426 10.364V23H17.348V15.422L14.522 23H12.038L9.194 15.404V23H6.116V10.364H9.752L13.298 19.112L16.808 10.364H20.426ZM29.6154 23.126C28.4274 23.126 27.3354 22.85 26.3394 22.298C25.3554 21.746 24.5694 20.978 23.9814 19.994C23.4054 18.998 23.1174 17.882 23.1174 16.646C23.1174 15.41 23.4054 14.3 23.9814 13.316C24.5694 12.332 25.3554 11.564 26.3394 11.012C27.3354 10.46 28.4274 10.184 29.6154 10.184C30.8034 10.184 31.8894 10.46 32.8734 11.012C33.8694 11.564 34.6494 12.332 35.2134 13.316C35.7894 14.3 36.0774 15.41 36.0774 16.646C36.0774 17.882 35.7894 18.998 35.2134 19.994C34.6374 20.978 33.8574 21.746 32.8734 22.298C31.8894 22.85 30.8034 23.126 29.6154 23.126ZM29.6154 20.318C30.6234 20.318 31.4274 19.982 32.0274 19.31C32.6394 18.638 32.9454 17.75 32.9454 16.646C32.9454 15.53 32.6394 14.642 32.0274 13.982C31.4274 13.31 30.6234 12.974 29.6154 12.974C28.5954 12.974 27.7794 13.304 27.1674 13.964C26.5674 14.624 26.2674 15.518 26.2674 16.646C26.2674 17.762 26.5674 18.656 27.1674 19.328C27.7794 19.988 28.5954 20.318 29.6154 20.318ZM50.0938 23H47.0158L41.8678 15.206V23H38.7898V10.364H41.8678L47.0158 18.194V10.364H50.0938V23ZM56.403 10.364V23H53.325V10.364H56.403ZM68.7236 10.364V12.83H65.3756V23H62.2976V12.83H58.9496V10.364H68.7236ZM80.8983 14.432C80.8983 15.164 80.7303 15.836 80.3943 16.448C80.0583 17.048 79.5423 17.534 78.8463 17.906C78.1503 18.278 77.2863 18.464 76.2543 18.464H74.3463V23H71.2683V10.364H76.2543C77.2623 10.364 78.1143 10.538 78.8103 10.886C79.5063 11.234 80.0283 11.714 80.3763 12.326C80.7243 12.938 80.8983 13.64 80.8983 14.432ZM76.0203 16.016C76.6083 16.016 77.0463 15.878 77.3343 15.602C77.6223 15.326 77.7663 14.936 77.7663 14.432C77.7663 13.928 77.6223 13.538 77.3343 13.262C77.0463 12.986 76.6083 12.848 76.0203 12.848H74.3463V16.016H76.0203ZM89.9448 23L87.3168 18.23H86.5788V23H83.5008V10.364H88.6668C89.6628 10.364 90.5088 10.538 91.2048 10.886C91.9128 11.234 92.4408 11.714 92.7888 12.326C93.1368 12.926 93.3108 13.598 93.3108 14.342C93.3108 15.182 93.0708 15.932 92.5908 16.592C92.1228 17.252 91.4268 17.72 90.5028 17.996L93.4188 23H89.9448ZM86.5788 16.052H88.4868C89.0508 16.052 89.4708 15.914 89.7468 15.638C90.0348 15.362 90.1788 14.972 90.1788 14.468C90.1788 13.988 90.0348 13.61 89.7468 13.334C89.4708 13.058 89.0508 12.92 88.4868 12.92H86.5788V16.052ZM102.219 23.126C101.031 23.126 99.939 22.85 98.943 22.298C97.959 21.746 97.173 20.978 96.585 19.994C96.009 18.998 95.721 17.882 95.721 16.646C95.721 15.41 96.009 14.3 96.585 13.316C97.173 12.332 97.959 11.564 98.943 11.012C99.939 10.46 101.031 10.184 102.219 10.184C103.407 10.184 104.493 10.46 105.477 11.012C106.473 11.564 107.253 12.332 107.817 13.316C108.393 14.3 108.681 15.41 108.681 16.646C108.681 17.882 108.393 18.998 107.817 19.994C107.241 20.978 106.461 21.746 105.477 22.298C104.493 22.85 103.407 23.126 102.219 23.126ZM102.219 20.318C103.227 20.318 104.031 19.982 104.631 19.31C105.243 18.638 105.549 17.75 105.549 16.646C105.549 15.53 105.243 14.642 104.631 13.982C104.031 13.31 103.227 12.974 102.219 12.974C101.199 12.974 100.383 13.304 99.771 13.964C99.171 14.624 98.871 15.518 98.871 16.646C98.871 17.762 99.171 18.656 99.771 19.328C100.383 19.988 101.199 20.318 102.219 20.318ZM116.127 10.364C117.459 10.364 118.623 10.628 119.619 11.156C120.615 11.684 121.383 12.428 121.923 13.388C122.475 14.336 122.751 15.434 122.751 16.682C122.751 17.918 122.475 19.016 121.923 19.976C121.383 20.936 120.609 21.68 119.601 22.208C118.605 22.736 117.447 23 116.127 23H111.393V10.364H116.127ZM115.929 20.336C117.093 20.336 117.999 20.018 118.647 19.382C119.295 18.746 119.619 17.846 119.619 16.682C119.619 15.518 119.295 14.612 118.647 13.964C117.999 13.316 117.093 12.992 115.929 12.992H114.471V20.336H115.929Z" fill="#14142B"/>
<rect x="6.7998" y="4.81738" width="18.4944" height="18.4944" transform="rotate(14 6.7998 4.81738)" fill="url(#paint0_linear_36:274)" fill-opacity="0.6"/>
<defs>
<linearGradient id="paint0_linear_36:274" x1="6.08578" y1="2.19229" x2="29.7675" y2="11.1582" gradientUnits="userSpaceOnUse">
<stop stop-color="#EB0055"/>
<stop offset="1" stop-color="#FFFA80"/>
</linearGradient>
</defs>
</svg>
